<svg width="32" height="32" viewBox="0 0 32 32" fill="none" xmlns="http://www.w3.org/2000/svg">
<path d="M10.1771 32C3.62077 28.3049 1.89464 24.8074 2.88152 20.0306C3.61008 16.5034 5.9957 13.6337 6.22445 10.1132C7.24351 11.9677 7.66933 13.305 7.78319 15.2429C11.0243 11.2719 13.1662 5.77456 13.293 0C13.293 0 21.735 4.96027 22.2889 12.4528C23.0157 10.9085 23.3815 8.45568 22.6548 6.86603C24.8349 8.45576 37.5959 22.5684 20.9263 32C24.0603 25.8977 21.7348 17.6637 16.2932 13.8609C16.6567 15.496 16.0195 21.5947 13.6121 24.2746C14.2792 19.7968 12.9775 17.9034 12.9775 17.9034C12.9775 17.9034 12.5307 20.4115 10.7972 22.9452C9.21431 25.2588 8.11751 27.7144 10.1771 32V32Z" fill="#EB5501"/>
</svg>
