<svg width="36" height="36" viewBox="0 0 36 36" fill="none" xmlns="http://www.w3.org/2000/svg">
<rect width="36" height="36" rx="5" fill="#6A2AD2"/>
<path d="M14.3121 7C14.6625 7.71689 15.1269 9.00728 17.5822 9.00728C19.6843 9.00728 20.2683 7.86026 20.7354 7" stroke="white" stroke-width="3.13158" stroke-linecap="round" stroke-linejoin="round"/>
<path d="M17.512 29.09C16.9039 29.09 16.4079 28.962 16.0239 28.706C15.6558 28.4499 15.3438 28.0419 15.0878 27.4819L9.2793 14.6648C9.02327 14.1047 8.94327 13.6007 9.03928 13.1526C9.13528 12.7046 9.3593 12.3606 9.71133 12.1205C10.0634 11.8645 10.5034 11.7365 11.0314 11.7365C11.6715 11.7365 12.1595 11.8805 12.4956 12.1685C12.8316 12.4566 13.1196 12.8806 13.3596 13.4407L17.584 23.2335L21.8084 13.4167C22.0484 12.8566 22.3364 12.4406 22.6724 12.1685C23.0085 11.8805 23.4805 11.7365 24.0886 11.7365C24.5846 11.7365 25.0006 11.8645 25.3367 12.1205C25.6727 12.3766 25.8807 12.7286 25.9607 13.1766C26.0567 13.6087 25.9767 14.1047 25.7207 14.6648L19.8882 27.4819C19.6482 28.0419 19.3362 28.4499 18.9521 28.706C18.5841 28.962 18.1041 29.09 17.512 29.09Z" fill="white"/>
</svg>
