<svg width="119" height="40" viewBox="0 0 119 40" fill="none" xmlns="http://www.w3.org/2000/svg">
<path d="M10.4635 40C8.95797 40 7.40313 39.8431 5.79893 39.5292C4.2194 39.1892 2.862 38.7185 1.72672 38.1169C1.06036 37.7769 0.591439 37.3192 0.319959 36.7438C0.0484786 36.1685 -0.0502415 35.58 0.0237986 34.9785C0.0978387 34.3508 0.307619 33.8015 0.653139 33.3308C0.99866 32.8338 1.45524 32.5069 2.02288 32.35C2.59052 32.1669 3.2322 32.2454 3.94792 32.5854C4.88576 33.0823 5.94701 33.4615 7.13165 33.7231C8.31629 33.9585 9.42689 34.0761 10.4635 34.0761C12.0923 34.0761 13.2276 33.8538 13.8693 33.4092C14.5357 32.9385 14.8688 32.3631 14.8688 31.6831C14.8688 31.0815 14.6344 30.5977 14.1655 30.2315C13.7212 29.8654 12.9191 29.5515 11.7592 29.29L7.42781 28.3092C2.7386 27.2369 0.393999 24.6346 0.393999 20.5023C0.393999 18.6976 0.85058 17.1153 1.76374 15.7553C2.70158 14.3953 3.99728 13.3492 5.65085 12.6169C7.30441 11.8584 9.22945 11.4792 11.426 11.4792C12.7093 11.4792 14.005 11.6361 15.3131 11.9499C16.6458 12.2376 17.7934 12.6823 18.7559 13.2838C19.4963 13.7023 19.9653 14.2776 20.1627 15.0099C20.3601 15.7161 20.3355 16.4092 20.0887 17.0892C19.8419 17.7692 19.3976 18.2661 18.7559 18.58C18.1389 18.8938 17.3492 18.8415 16.3867 18.423C15.6463 18.083 14.8318 17.8346 13.9433 17.6776C13.0549 17.4946 12.1911 17.403 11.3519 17.403C9.96985 17.403 8.90861 17.6646 8.16821 18.1876C7.42781 18.6846 7.05761 19.3384 7.05761 20.1492C7.05761 20.7246 7.27973 21.1953 7.72397 21.5615C8.16821 21.9277 8.95797 22.2415 10.0933 22.503L14.3876 23.4838C19.1508 24.5561 21.5324 27.0931 21.5324 31.0946C21.5324 32.8992 21.0759 34.4685 20.1627 35.8023C19.2495 37.1362 17.9662 38.1692 16.3126 38.9015C14.6591 39.6339 12.7093 40 10.4635 40Z" fill="#6A2AD2"/>
<path d="M28.3207 39.5685C27.2101 39.5685 26.3586 39.2546 25.7663 38.6269C25.174 37.9731 24.8778 37.0708 24.8778 35.92V15.5199C24.8778 14.343 25.174 13.4407 25.7663 12.813C26.3586 12.1853 27.1978 11.8715 28.2837 11.8715C29.3696 11.8715 30.2087 12.1853 30.801 12.813C31.3934 13.4407 31.6895 14.343 31.6895 15.5199V33.5661H40.7224C41.6603 33.5661 42.376 33.8277 42.8696 34.3508C43.3879 34.8738 43.647 35.6061 43.647 36.5477C43.647 37.5154 43.3879 38.2608 42.8696 38.7838C42.376 39.3069 41.6603 39.5685 40.7224 39.5685H28.3207Z" fill="#6A2AD2"/>
<path d="M49.939 39.9215C48.853 39.9215 48.0139 39.6077 47.4216 38.98C46.8293 38.3523 46.5331 37.4369 46.5331 36.2338V15.2453C46.5331 14.0423 46.8293 13.1269 47.4216 12.4992C48.0139 11.8715 48.853 11.5576 49.939 11.5576C51.0249 11.5576 51.864 11.8715 52.4563 12.4992C53.0487 13.1269 53.3448 14.0423 53.3448 15.2453V36.2338C53.3448 37.4369 53.0487 38.3523 52.4563 38.98C51.8887 39.6077 51.0496 39.9215 49.939 39.9215Z" fill="#6A2AD2"/>
<path d="M69.4679 39.9215C68.5301 39.9215 67.765 39.7123 67.1727 39.2938C66.605 38.8754 66.1238 38.2085 65.7289 37.2931L56.77 16.3438C56.3752 15.4284 56.2517 14.6046 56.3998 13.8723C56.5479 13.1399 56.8934 12.5776 57.4364 12.1853C57.9794 11.7669 58.6581 11.5576 59.4725 11.5576C60.4597 11.5576 61.2124 11.793 61.7307 12.2638C62.249 12.7346 62.6932 13.4276 63.0634 14.343L69.579 30.3492L76.0945 14.3038C76.4647 13.3884 76.9089 12.7084 77.4272 12.2638C77.9455 11.793 78.6736 11.5576 79.6114 11.5576C80.3765 11.5576 81.0182 11.7669 81.5364 12.1853C82.0547 12.6038 82.3756 13.1792 82.499 13.9115C82.647 14.6176 82.5236 15.4284 82.1288 16.3438L73.1329 37.2931C72.7627 38.2085 72.2814 38.8754 71.6891 39.2938C71.1215 39.7123 70.3811 39.9215 69.4679 39.9215Z" fill="#6A2AD2"/>
<path d="M88.9474 39.9215C87.8615 39.9215 87.0224 39.6077 86.43 38.98C85.8377 38.3523 85.5415 37.45 85.5415 36.2731V15.2061C85.5415 14.0292 85.8377 13.1269 86.43 12.4992C87.0224 11.8715 87.8615 11.5576 88.9474 11.5576C90.0333 11.5576 90.8724 11.8715 91.4648 12.4992C92.0571 13.1269 92.3532 14.0292 92.3532 15.2061V23.7584H92.4273L101.423 13.2446C101.892 12.7215 102.386 12.3161 102.904 12.0284C103.447 11.7146 104.052 11.5576 104.718 11.5576C105.73 11.5576 106.47 11.8453 106.939 12.4207C107.408 12.9699 107.618 13.6238 107.568 14.3823C107.519 15.1407 107.235 15.8207 106.717 16.4223L99.0168 25.053L107.161 34.8215C107.803 35.58 108.124 36.3515 108.124 37.1362C108.124 37.9208 107.865 38.5877 107.346 39.1369C106.828 39.66 106.088 39.9215 105.125 39.9215C104.286 39.9215 103.607 39.7515 103.089 39.4115C102.571 39.0454 102.028 38.5092 101.46 37.8031L92.4273 27.0931H92.3532V36.2731C92.3532 37.45 92.0571 38.3523 91.4648 38.98C90.8971 39.6077 90.058 39.9215 88.9474 39.9215Z" fill="#6A2AD2"/>
<path d="M115.302 39.9215C114.217 39.9215 113.377 39.6077 112.785 38.98C112.193 38.3523 111.897 37.4369 111.897 36.2338V15.2453C111.897 14.0423 112.193 13.1269 112.785 12.4992C113.377 11.8715 114.217 11.5576 115.302 11.5576C116.388 11.5576 117.228 11.8715 117.82 12.4992C118.412 13.1269 118.708 14.0423 118.708 15.2453V36.2338C118.708 37.4369 118.412 38.3523 117.82 38.98C117.252 39.6077 116.413 39.9215 115.302 39.9215Z" fill="#6A2AD2"/>
<path d="M65.6323 1.81536C64.978 0.47667 63.3624 -0.078177 62.0237 0.576079C60.685 1.23034 60.1302 2.84594 60.7844 4.18464L65.6323 1.81536ZM77.9126 4.28747C78.6236 2.97806 78.1385 1.34015 76.8291 0.629099C75.5197 -0.0819516 73.8818 0.403116 73.1708 1.71253L77.9126 4.28747ZM60.7844 4.18464C61.0333 4.69383 61.6579 6.23958 63.0463 7.46557C64.5402 8.78479 66.6266 9.55208 69.4871 9.55208V4.15625C67.6332 4.15625 66.9165 3.68471 66.6179 3.42097C66.2136 3.06399 66.0561 2.68266 65.6323 1.81536L60.7844 4.18464ZM69.4871 9.55208C72.0459 9.55208 73.9792 8.83427 75.4318 7.60821C76.7806 6.46976 77.5055 5.03702 77.9126 4.28747L73.1708 1.71253C72.6808 2.61477 72.3966 3.10911 71.9515 3.48479C71.6102 3.77288 70.9647 4.15625 69.4871 4.15625V9.55208Z" fill="#6123C6"/>
</svg>
