<svg width="12" height="12" viewBox="0 0 12 12" fill="none" xmlns="http://www.w3.org/2000/svg">
<path d="M1.71429 6.85713L6.42857 6.85756C6.64474 6.8576 6.85292 6.93932 7.01139 7.08635C7.16986 7.23338 7.26693 7.43486 7.28314 7.65042L7.28571 7.7147V8.78571C7.28529 10.5857 5.44843 11.1428 4.07143 11.1428C2.72186 11.1428 0.930429 10.608 0.859286 8.89199L0.857143 8.78571V7.71428C0.857183 7.4981 0.938903 7.28993 1.08593 7.13146C1.23296 6.97298 1.43444 6.87592 1.65 6.85971L1.71429 6.85713ZM10.2857 6.85713L10.35 6.85971C10.554 6.87511 10.7457 6.96293 10.8906 7.10729C11.0356 7.25166 11.1241 7.44308 11.1403 7.64699L11.1429 7.71428V8.57142C11.1424 10.1824 9.67286 10.7143 8.57143 10.7143C8.118 10.7143 7.60329 10.6221 7.15329 10.4036C7.28957 10.2416 7.40486 10.0616 7.49486 9.86013C7.90543 10.0401 8.34814 10.068 8.53543 10.071L8.65886 10.0697C9.10286 10.0547 10.4289 9.90513 10.4974 8.67128L10.5 8.57142V7.71428C10.4999 7.66415 10.4823 7.61562 10.4502 7.57711C10.4181 7.53859 10.3736 7.51252 10.3243 7.50342L10.2857 7.49999L7.69243 7.50042C7.657 7.29061 7.56931 7.09311 7.43743 6.92613L7.38 6.85713H10.2857ZM1.71429 7.49999L1.67143 7.50428C1.6303 7.51284 1.5925 7.53307 1.56257 7.56256C1.53308 7.59232 1.51283 7.62998 1.50429 7.67099L1.5 7.71428V8.78571C1.5 9.35956 1.75157 9.78385 2.26929 10.0821C2.69614 10.329 3.29357 10.4777 3.92529 10.4978L4.07143 10.5L4.25786 10.4957C4.90929 10.4666 6.56314 10.257 6.63986 8.88513L6.64286 8.78528V7.7147C6.64271 7.6646 6.62507 7.61611 6.59299 7.57762C6.56091 7.53912 6.5164 7.51303 6.46714 7.50385L6.42857 7.50042L1.71429 7.49999ZM4.07143 1.28571C4.69658 1.28571 5.29613 1.53405 5.73818 1.9761C6.18023 2.41815 6.42857 3.0177 6.42857 3.64285C6.42857 4.268 6.18023 4.86755 5.73818 5.3096C5.29613 5.75165 4.69658 5.99999 4.07143 5.99999C3.44628 5.99999 2.84673 5.75165 2.40468 5.3096C1.96263 4.86755 1.71429 4.268 1.71429 3.64285C1.71429 3.0177 1.96263 2.41815 2.40468 1.9761C2.84673 1.53405 3.44628 1.28571 4.07143 1.28571V1.28571ZM8.78571 2.14285C9.03898 2.14285 9.28976 2.19273 9.52375 2.28965C9.75773 2.38657 9.97034 2.52863 10.1494 2.70771C10.3285 2.8868 10.4706 3.0994 10.5675 3.33339C10.6644 3.56737 10.7143 3.81816 10.7143 4.07142C10.7143 4.32468 10.6644 4.57547 10.5675 4.80945C10.4706 5.04344 10.3285 5.25604 10.1494 5.43513C9.97034 5.61421 9.75773 5.75627 9.52375 5.85319C9.28976 5.95011 9.03898 5.99999 8.78571 5.99999C8.27422 5.99999 7.78369 5.7968 7.42201 5.43513C7.06033 5.07345 6.85714 4.58291 6.85714 4.07142C6.85714 3.55993 7.06033 3.06939 7.42201 2.70771C7.78369 2.34604 8.27422 2.14285 8.78571 2.14285V2.14285ZM4.07143 1.92856C3.126 1.92856 2.35714 2.69742 2.35714 3.64285C2.35714 4.58828 3.126 5.35713 4.07143 5.35713C5.01686 5.35713 5.78571 4.58828 5.78571 3.64285C5.78571 2.69742 5.01686 1.92856 4.07143 1.92856ZM8.78571 2.78571C8.07686 2.78571 7.5 3.36256 7.5 4.07142C7.5 4.78028 8.07686 5.35713 8.78571 5.35713C9.49457 5.35713 10.0714 4.78028 10.0714 4.07142C10.0714 3.36256 9.49457 2.78571 8.78571 2.78571Z" fill="#6325C9"/>
</svg>
