<svg width="41" height="41" viewBox="0 0 41 41" fill="none" xmlns="http://www.w3.org/2000/svg">
<path d="M20.4167 0.0833282C9.34879 0.0833282 0 9.43212 0 20.5C0 31.5679 9.34879 40.9167 20.4167 40.9167C31.4845 40.9167 40.8333 31.5679 40.8333 20.5C40.8333 9.43212 31.4845 0.0833282 20.4167 0.0833282ZM20.4167 10.2917C23.9426 10.2917 26.5417 12.8887 26.5417 16.4167C26.5417 19.9447 23.9426 22.5417 20.4167 22.5417C16.8928 22.5417 14.2917 19.9447 14.2917 16.4167C14.2917 12.8887 16.8928 10.2917 20.4167 10.2917ZM9.99192 30.2428C11.8233 27.5478 14.8776 25.7512 18.375 25.7512H22.4583C25.9578 25.7512 29.01 27.5478 30.8414 30.2428C28.2322 33.0358 24.5306 34.7917 20.4167 34.7917C16.3027 34.7917 12.6012 33.0358 9.99192 30.2428Z" fill="#6123C6"/>
</svg>
